<?xml version="1.0" encoding="utf-8"?>
<!-- Generator: Adobe Illustrator 26.3.1, SVG Export Plug-In . SVG Version: 6.00 Build 0)  -->
<svg version="1.1" id="图层_1" xmlns="http://www.w3.org/2000/svg" xmlns:xlink="http://www.w3.org/1999/xlink" x="0px" y="0px"
	 viewBox="0 0 218 90" style="enable-background:new 0 0 218 90;" xml:space="preserve">
<style type="text/css">
	.st0{fill:#FFFFFF;}
	.st1{fill:#C6C4CE;}
	.st2{fill:#F3F2F9;}
</style>
<g>
	<g>
		<path class="st0" d="M0.8,89.5l41-73.8C47.1,6.3,56.9,0.5,67.7,0.5h82.7c10.7,0,20.6,5.8,25.8,15.2l41,73.8H0.8z"/>
		<g>
			<path class="st1" d="M150.3,1c10.5,0,20.2,5.7,25.4,14.9L216.3,89H1.7l40.6-73.1C47.4,6.7,57.1,1,67.7,1H150.3 M150.3,0H67.7
				C56.8,0,46.7,5.9,41.4,15.4L0,90h218l-41.4-74.6C171.3,5.9,161.2,0,150.3,0L150.3,0z"/>
		</g>
	</g>
</g>
</svg>
