<?xml version="1.0" encoding="utf-8"?>
<!-- Generator: Adobe Illustrator 26.3.1, SVG Export Plug-In . SVG Version: 6.00 Build 0)  -->
<svg version="1.1" id="图层_1" xmlns="http://www.w3.org/2000/svg" xmlns:xlink="http://www.w3.org/1999/xlink" x="0px" y="0px"
	 viewBox="0 0 190 90" style="enable-background:new 0 0 190 90;" xml:space="preserve">
<style type="text/css">
	.st0{fill:#FFFFFF;}
	.st1{fill:#C6C4CE;}
	.st2{fill:#F3F2F9;}
</style>
<g>
	<g>
		<path class="st2" d="M0.5,89.5V30C0.5,13.7,13.7,0.5,30,0.5h92.3c10.7,0,20.6,5.8,25.8,15.2l41,73.8H0.5z"/>
		<g>
			<path class="st1" d="M122.3,1c10.5,0,20.2,5.7,25.4,14.9L188.3,89H1V30C1,14,14,1,30,1H122.3 M122.3,0H30C13.4,0,0,13.4,0,30v60
				h190l-41.4-74.6C143.3,5.9,133.2,0,122.3,0L122.3,0z"/>
		</g>
	</g>
</g>
</svg>
